<?xml version="1.0" encoding="UTF-8" standalone="no"?>
<svg
   xmlns:dc="http://purl.org/dc/elements/1.1/"
   xmlns:cc="http://creativecommons.org/ns#"
   xmlns:rdf="http://www.w3.org/1999/02/22-rdf-syntax-ns#"
   xmlns:svg="http://www.w3.org/2000/svg"
   xmlns="http://www.w3.org/2000/svg"
   xmlns:sodipodi="http://sodipodi.sourceforge.net/DTD/sodipodi-0.dtd"
   xmlns:inkscape="http://www.inkscape.org/namespaces/inkscape"
   width="130.0px"
   height="130.0px"
   viewBox="0 0 130.0 130.0"
   version="1.1"
   id="SVGRoot"
   sodipodi:docname="code.svg"
   inkscape:version="1.0.2-2 (e86c870879, 2021-01-15)">
  <defs
     id="defs883">
    <inkscape:path-effect
       effect="fillet_chamfer"
       id="path-effect1462"
       is_visible="true"
       lpeversion="1"
       satellites_param="F,0,0,1,0,5,0,1 @ F,0,0,1,0,5,0,1 @ F,0,0,1,0,5,0,1 @ F,0,0,1,0,5,0,1"
       unit="px"
       method="auto"
       mode="F"
       radius="5"
       chamfer_steps="1"
       flexible="false"
       use_knot_distance="true"
       apply_no_radius="true"
       apply_with_radius="true"
       only_selected="false"
       hide_knots="false" />
  </defs>
  <sodipodi:namedview
     id="base"
     pagecolor="#ffffff"
     bordercolor="#666666"
     borderopacity="1.0"
     inkscape:pageopacity="0.0"
     inkscape:pageshadow="2"
     inkscape:zoom="3.055515"
     inkscape:cx="15.483488"
     inkscape:cy="14.27653"
     inkscape:document-units="px"
     inkscape:current-layer="layer1"
     inkscape:document-rotation="0"
     showgrid="true"
     inkscape:window-width="1920"
     inkscape:window-height="1017"
     inkscape:window-x="-8"
     inkscape:window-y="58"
     inkscape:window-maximized="1">
    <inkscape:grid
       type="xygrid"
       id="grid892" />
  </sodipodi:namedview>
  <metadata
     id="metadata886">
    <rdf:RDF>
      <cc:Work
         rdf:about="">
        <dc:format>image/svg+xml</dc:format>
        <dc:type
           rdf:resource="http://purl.org/dc/dcmitype/StillImage" />
        <dc:title />
      </cc:Work>
    </rdf:RDF>
  </metadata>
  <g
     inkscape:label="Layer 1"
     inkscape:groupmode="layer"
     id="layer1">
    <path
       id="path1464-0-5"
       style="color:#000000;font-style:normal;font-variant:normal;font-weight:normal;font-stretch:normal;font-size:medium;line-height:normal;font-family:sans-serif;font-variant-ligatures:normal;font-variant-position:normal;font-variant-caps:normal;font-variant-numeric:normal;font-variant-alternates:normal;font-variant-east-asian:normal;font-feature-settings:normal;font-variation-settings:normal;text-indent:0;text-align:start;text-decoration:none;text-decoration-line:none;text-decoration-style:solid;text-decoration-color:#000000;letter-spacing:normal;word-spacing:normal;text-transform:none;writing-mode:lr-tb;direction:ltr;text-orientation:mixed;dominant-baseline:auto;baseline-shift:baseline;text-anchor:start;white-space:normal;shape-padding:0;shape-margin:0;inline-size:0;clip-rule:nonzero;display:inline;overflow:visible;visibility:visible;isolation:auto;mix-blend-mode:normal;color-interpolation:sRGB;color-interpolation-filters:linearRGB;solid-color:#000000;solid-opacity:1;vector-effect:none;fill:#000000;fill-opacity:1;fill-rule:nonzero;stroke:none;stroke-linecap:butt;stroke-linejoin:round;stroke-miterlimit:4;stroke-dasharray:none;stroke-dashoffset:0;stroke-opacity:1;paint-order:fill markers stroke;color-rendering:auto;image-rendering:auto;shape-rendering:auto;text-rendering:auto;enable-background:accumulate;stop-color:#000000;stop-opacity:1;opacity:1"
       d="m 106.5,41 v 48 h 5 V 41 Z m -3,0 v 48 h 1 V 41 Z m -2,0 v 48 h 1 V 41 Z m -4,0 v 48 h 3 V 41 Z m -8,0 v 48 h 5 V 41 Z m -9,0 v 48 h 5 V 41 Z m -2,0 v 48 h 1 V 41 Z m -7,0 v 48 h 3 V 41 Z m -5,0 v 48 h 3 V 41 Z m -11,0 v 48 h 5 V 41 Z M 41,41 V 89 H 53 V 41 Z m -5.5,0 v 48 h 1 V 41 Z m -8,0 v 48 h 5 V 41 Z m -9,0 v 48 h 3 V 41 Z M 15,32.5 c -4.112524,0 -7.5,3.387476 -7.5,7.5 v 50 c 0,4.112524 3.387476,7.5 7.5,7.5 h 100 c 4.11252,0 7.5,-3.387476 7.5,-7.5 V 40 c 0,-4.112524 -3.38748,-7.5 -7.5,-7.5 z m 0,5 h 100 c 1.41032,0 2.5,1.089677 2.5,2.5 v 50 c 0,1.410323 -1.08968,2.5 -2.5,2.5 H 15 c -1.410323,0 -2.5,-1.089677 -2.5,-2.5 V 40 c 0,-1.410323 1.089677,-2.5 2.5,-2.5 z" />
  </g>
</svg>
