<?xml version="1.0" encoding="UTF-8" standalone="no"?>
<svg
   xmlns:dc="http://purl.org/dc/elements/1.1/"
   xmlns:cc="http://creativecommons.org/ns#"
   xmlns:rdf="http://www.w3.org/1999/02/22-rdf-syntax-ns#"
   xmlns:svg="http://www.w3.org/2000/svg"
   xmlns="http://www.w3.org/2000/svg"
   xmlns:sodipodi="http://sodipodi.sourceforge.net/DTD/sodipodi-0.dtd"
   xmlns:inkscape="http://www.inkscape.org/namespaces/inkscape"
   width="130.0px"
   height="130.0px"
   viewBox="0 0 130.0 130.0"
   version="1.1"
   id="SVGRoot"
   sodipodi:docname="duration.svg"
   inkscape:version="1.0.2-2 (e86c870879, 2021-01-15)">
  <defs
     id="defs3769" />
  <sodipodi:namedview
     id="base"
     pagecolor="#ffffff"
     bordercolor="#666666"
     borderopacity="1.0"
     inkscape:pageopacity="0.0"
     inkscape:pageshadow="2"
     inkscape:zoom="1.979899"
     inkscape:cx="62.314056"
     inkscape:cy="-25.195297"
     inkscape:document-units="px"
     inkscape:current-layer="layer1"
     inkscape:document-rotation="0"
     showgrid="true"
     inkscape:window-width="1920"
     inkscape:window-height="1017"
     inkscape:window-x="-8"
     inkscape:window-y="58"
     inkscape:window-maximized="1">
    <inkscape:grid
       type="xygrid"
       id="grid3778" />
  </sodipodi:namedview>
  <metadata
     id="metadata3772">
    <rdf:RDF>
      <cc:Work
         rdf:about="">
        <dc:format>image/svg+xml</dc:format>
        <dc:type
           rdf:resource="http://purl.org/dc/dcmitype/StillImage" />
        <dc:title />
      </cc:Work>
    </rdf:RDF>
  </metadata>
  <g
     inkscape:label="Layer 1"
     inkscape:groupmode="layer"
     id="layer1">
    <path
       id="path6691"
       style="color:#000000;font-style:normal;font-variant:normal;font-weight:normal;font-stretch:normal;font-size:medium;line-height:normal;font-family:sans-serif;font-variant-ligatures:normal;font-variant-position:normal;font-variant-caps:normal;font-variant-numeric:normal;font-variant-alternates:normal;font-variant-east-asian:normal;font-feature-settings:normal;font-variation-settings:normal;text-indent:0;text-align:start;text-decoration:none;text-decoration-line:none;text-decoration-style:solid;text-decoration-color:#000000;letter-spacing:normal;word-spacing:normal;text-transform:none;writing-mode:lr-tb;direction:ltr;text-orientation:mixed;dominant-baseline:auto;baseline-shift:baseline;text-anchor:start;white-space:normal;shape-padding:0;shape-margin:0;inline-size:0;clip-rule:nonzero;display:inline;overflow:visible;visibility:visible;isolation:auto;mix-blend-mode:normal;color-interpolation:sRGB;color-interpolation-filters:linearRGB;solid-color:#000000;solid-opacity:1;vector-effect:none;fill:#000000;fill-opacity:1;fill-rule:nonzero;stroke:none;stroke-linecap:round;stroke-linejoin:round;stroke-miterlimit:4;stroke-dasharray:none;stroke-dashoffset:0;stroke-opacity:1;color-rendering:auto;image-rendering:auto;shape-rendering:auto;text-rendering:auto;enable-background:accumulate;stop-color:#000000;stop-opacity:1;opacity:1"
       d="m 65,31 a 4,4 0 0 0 -4,4 v 30 a 4.0004,4.0004 0 0 0 1.78125,3.328125 l 15,10 A 4,4 0 0 0 83.328125,77.21875 4,4 0 0 0 82.21875,71.671875 L 69,62.859375 V 35 A 4,4 0 0 0 65,31 Z M 111,9 a 4,4 0 0 0 -4,4 V 29 H 91 a 4,4 0 0 0 -4,4 4,4 0 0 0 4,4 h 24 V 13 A 4,4 0 0 0 111,9 Z M 64.751953,6.0058594 C 55.200496,6.0405089 45.579563,8.3916613 36.765625,13.195312 13.261792,26.005049 1.315785,53.087869 7.7050781,79.082031 14.094371,105.07619 37.235968,123.53815 64,123.99219 c 26.764032,0.45403 50.51589,-17.21213 57.7832,-42.974612 a 4,4 0 0 0 -2.76367,-4.935547 4,4 0 0 0 -4.93555,2.763672 C 107.79215,101.15015 87.306326,116.38528 64.134766,115.99219 40.963205,115.5991 21.006283,99.678857 15.474609,77.173828 9.9429355,54.668799 20.244779,31.309067 40.59375,20.21875 60.942721,9.1284333 86.157334,13.130474 102.07227,29.976562 a 4,4 0 0 0 5.65429,0.160157 4,4 0 0 0 0.16211,-5.654297 C 96.399703,12.321252 80.671049,5.9481101 64.751953,6.0058594 Z" />
  </g>
</svg>
