<?xml version="1.0" encoding="UTF-8" standalone="no"?>
<svg
   xmlns:dc="http://purl.org/dc/elements/1.1/"
   xmlns:cc="http://creativecommons.org/ns#"
   xmlns:rdf="http://www.w3.org/1999/02/22-rdf-syntax-ns#"
   xmlns:svg="http://www.w3.org/2000/svg"
   xmlns="http://www.w3.org/2000/svg"
   xmlns:sodipodi="http://sodipodi.sourceforge.net/DTD/sodipodi-0.dtd"
   xmlns:inkscape="http://www.inkscape.org/namespaces/inkscape"
   width="130.0px"
   height="130.0px"
   viewBox="0 0 130.0 130.0"
   version="1.1"
   id="SVGRoot"
   sodipodi:docname="price.svg"
   inkscape:version="1.0.2-2 (e86c870879, 2021-01-15)">
  <defs
     id="defs26" />
  <sodipodi:namedview
     id="base"
     pagecolor="#ffffff"
     bordercolor="#666666"
     borderopacity="1.0"
     inkscape:pageopacity="0.0"
     inkscape:pageshadow="2"
     inkscape:zoom="3.959798"
     inkscape:cx="10.124447"
     inkscape:cy="55.910681"
     inkscape:document-units="px"
     inkscape:current-layer="layer1"
     inkscape:document-rotation="0"
     showgrid="true"
     inkscape:window-width="1920"
     inkscape:window-height="1017"
     inkscape:window-x="-8"
     inkscape:window-y="58"
     inkscape:window-maximized="1">
    <inkscape:grid
       type="xygrid"
       id="grid35" />
  </sodipodi:namedview>
  <metadata
     id="metadata29">
    <rdf:RDF>
      <cc:Work
         rdf:about="">
        <dc:format>image/svg+xml</dc:format>
        <dc:type
           rdf:resource="http://purl.org/dc/dcmitype/StillImage" />
        <dc:title />
      </cc:Work>
    </rdf:RDF>
  </metadata>
  <g
     inkscape:label="Layer 1"
     inkscape:groupmode="layer"
     id="layer1">
    <g
       aria-label="$"
       id="text878"
       style="font-style:normal;font-weight:normal;font-size:86.6667px;line-height:1.25;font-family:sans-serif;fill:#000000;fill-opacity:1;stroke:none">
      <path
         id="path880"
         style="font-style:normal;font-variant:normal;font-weight:bold;font-stretch:normal;font-size:86.6667px;font-family:Arial;-inkscape-font-specification:'Arial Bold'"
         d="M 61.86393,85.306659 V 67.575532 q -8.294274,-2.369793 -12.187505,-7.151696 -3.850913,-4.824221 -3.850913,-11.679692 0,-6.940107 4.358726,-11.637375 4.401043,-4.739585 11.679692,-5.458986 V 27.458328 H 68 v 4.189455 q 6.728519,0.804036 10.706385,4.612632 3.977866,3.766277 5.078127,10.113936 L 73.078127,47.770836 Q 72.10482,42.777344 68,41 v 16.546231 q 10.156254,2.750652 13.837896,7.151695 3.681643,4.358726 3.681643,11.214198 0,7.659508 -4.65495,12.906906 Q 76.251957,94.066428 68,95.251324 v 7.913416 H 61.86393 V 95.462913 Q 54.542963,94.574241 49.972649,90.003926 45.402335,85.433612 44.132803,77.09702 l 11.044926,-1.184896 q 0.677084,3.385418 2.539064,5.839846 1.86198,2.454428 4.147137,3.554689 z m 0,-44.433612 q -2.496746,0.846354 -3.977866,2.877605 -1.481121,2.031251 -1.481121,4.485679 0,2.24284 1.354167,4.189455 1.354168,1.904298 4.10482,3.089194 z M 68,85.899107 q 3.17383,-0.592448 5.162763,-2.919923 1.988933,-2.369793 1.988933,-5.543622 0,-2.835288 -1.692709,-4.866539 Q 71.808595,70.495455 68,69.395194 Z M 65,6 C 32.462578,6 6,32.462578 6,65 6,97.537422 32.462578,124 65,124 97.537422,124 124,97.537422 124,65 124,32.462578 97.537422,6 65,6 Z m 0,8 c 28.213901,0 51,22.786099 51,51 0,28.213901 -22.786099,51 -51,51 C 36.786099,116 14,93.213901 14,65 14,36.786099 36.786099,14 65,14 Z" />
    </g>
  </g>
</svg>
