<?xml version="1.0" encoding="UTF-8" standalone="no"?>
<svg
   xmlns:dc="http://purl.org/dc/elements/1.1/"
   xmlns:cc="http://creativecommons.org/ns#"
   xmlns:rdf="http://www.w3.org/1999/02/22-rdf-syntax-ns#"
   xmlns:svg="http://www.w3.org/2000/svg"
   xmlns="http://www.w3.org/2000/svg"
   xmlns:sodipodi="http://sodipodi.sourceforge.net/DTD/sodipodi-0.dtd"
   xmlns:inkscape="http://www.inkscape.org/namespaces/inkscape"
   width="130"
   height="130"
   viewBox="0 0 130 130"
   version="1.1"
   id="SVGRoot"
   sodipodi:docname="printer.svg"
   inkscape:version="1.0.2-2 (e86c870879, 2021-01-15)">
  <defs
     id="defs1383">
    <inkscape:path-effect
       effect="fillet_chamfer"
       id="path-effect1966"
       is_visible="true"
       lpeversion="1"
       satellites_param="F,0,0,1,0,3,0,1 @ F,0,0,1,0,3,0,1 @ F,0,0,1,0,3,0,1 @ F,0,0,1,0,3,0,1"
       unit="px"
       method="auto"
       mode="F"
       radius="3"
       chamfer_steps="1"
       flexible="false"
       use_knot_distance="true"
       apply_no_radius="true"
       apply_with_radius="true"
       only_selected="false"
       hide_knots="false" />
  </defs>
  <sodipodi:namedview
     id="base"
     pagecolor="#ffffff"
     bordercolor="#666666"
     borderopacity="1.0"
     inkscape:pageopacity="0.0"
     inkscape:pageshadow="2"
     inkscape:zoom="3.959798"
     inkscape:cx="-4.6382057"
     inkscape:cy="60.150778"
     inkscape:document-units="px"
     inkscape:current-layer="layer1"
     inkscape:document-rotation="0"
     showgrid="true"
     inkscape:window-width="1920"
     inkscape:window-height="1017"
     inkscape:window-x="-8"
     inkscape:window-y="58"
     inkscape:window-maximized="1">
    <inkscape:grid
       type="xygrid"
       id="grid1392" />
  </sodipodi:namedview>
  <metadata
     id="metadata1386">
    <rdf:RDF>
      <cc:Work
         rdf:about="">
        <dc:format>image/svg+xml</dc:format>
        <dc:type
           rdf:resource="http://purl.org/dc/dcmitype/StillImage" />
        <dc:title />
      </cc:Work>
    </rdf:RDF>
  </metadata>
  <g
     inkscape:label="Layer 1"
     inkscape:groupmode="layer"
     id="layer1">
    <path
       id="path1998"
       style="color:#000000;font-style:normal;font-variant:normal;font-weight:normal;font-stretch:normal;font-size:medium;line-height:normal;font-family:sans-serif;font-variant-ligatures:normal;font-variant-position:normal;font-variant-caps:normal;font-variant-numeric:normal;font-variant-alternates:normal;font-variant-east-asian:normal;font-feature-settings:normal;font-variation-settings:normal;text-indent:0;text-align:start;text-decoration:none;text-decoration-line:none;text-decoration-style:solid;text-decoration-color:#000000;letter-spacing:normal;word-spacing:normal;text-transform:none;writing-mode:lr-tb;direction:ltr;text-orientation:mixed;dominant-baseline:auto;baseline-shift:baseline;text-anchor:start;white-space:normal;shape-padding:0;shape-margin:0;inline-size:0;clip-rule:nonzero;display:inline;overflow:visible;visibility:visible;isolation:auto;mix-blend-mode:normal;color-interpolation:sRGB;color-interpolation-filters:linearRGB;solid-color:#000000;solid-opacity:1;vector-effect:none;fill:#000000;fill-opacity:1;fill-rule:nonzero;stroke:none;stroke-linecap:square;stroke-linejoin:miter;stroke-miterlimit:4;stroke-dasharray:none;stroke-dashoffset:0;stroke-opacity:1;color-rendering:auto;image-rendering:auto;shape-rendering:auto;text-rendering:auto;enable-background:accumulate;stop-color:#000000;stop-opacity:1;opacity:1"
       d="M 62.5,82.5 V 85 95 c 0,2.208333 0.196748,4.231904 1.732422,5.76758 C 65.768096,102.30325 67.791667,102.5 70,102.5 h 40 c 1.79167,0 2.2681,0.30325 2.23242,0.26758 -0.0357,-0.0357 0.26758,0.44075 0.26758,2.23242 0,1.79167 -0.30325,2.2681 -0.26758,2.23242 C 112.2681,107.19675 111.79167,107.5 110,107.5 H 20 c -2.208333,0 -4.231904,0.19675 -5.767578,1.73242 C 12.696748,110.7681 12.5,112.79167 12.5,115 c 0,2.20833 0.196748,4.2319 1.732422,5.76758 C 15.768096,122.30325 17.791667,122.5 20,122.5 h 95 2.5 v -5 H 115 20 c -1.791667,0 -2.268096,-0.30325 -2.232422,-0.26758 C 17.803252,117.2681 17.5,116.79167 17.5,115 c 0,-1.79167 0.303252,-2.2681 0.267578,-2.23242 C 17.731904,112.80325 18.208333,112.5 20,112.5 h 90 c 2.20833,0 4.2319,-0.19675 5.76758,-1.73242 C 117.30325,109.2319 117.5,107.20833 117.5,105 c 0,-2.20833 -0.19675,-4.2319 -1.73242,-5.767578 C 114.2319,97.696748 112.20833,97.5 110,97.5 H 70 c -1.791667,0 -2.268096,-0.303252 -2.232422,-0.267578 C 67.803252,97.268096 67.5,96.791667 67.5,95 V 85 82.5 Z M 43,1 c -3.818615,0 -7,3.1813853 -7,7 v 44 c 0,3.818615 3.181385,7 7,7 h 8.800781 L 62,76 h 6 L 78.199219,59 H 87 c 3.818615,0 7,-3.181385 7,-7 V 8 C 94,4.1813853 90.818615,1 87,1 Z m 1,8 H 86 V 51 H 44 Z" />
  </g>
</svg>
