<?xml version="1.0" encoding="UTF-8" standalone="no"?>
<svg
   xmlns:dc="http://purl.org/dc/elements/1.1/"
   xmlns:cc="http://creativecommons.org/ns#"
   xmlns:rdf="http://www.w3.org/1999/02/22-rdf-syntax-ns#"
   xmlns:svg="http://www.w3.org/2000/svg"
   xmlns="http://www.w3.org/2000/svg"
   xmlns:sodipodi="http://sodipodi.sourceforge.net/DTD/sodipodi-0.dtd"
   xmlns:inkscape="http://www.inkscape.org/namespaces/inkscape"
   width="130"
   height="130"
   viewBox="0 0 130 130"
   version="1.1"
   id="SVGRoot"
   sodipodi:docname="spool.svg"
   inkscape:version="1.0.2-2 (e86c870879, 2021-01-15)">
  <defs
     id="defs18" />
  <sodipodi:namedview
     id="base"
     pagecolor="#ffffff"
     bordercolor="#666666"
     borderopacity="1.0"
     inkscape:pageopacity="0.0"
     inkscape:pageshadow="2"
     inkscape:zoom="2"
     inkscape:cx="-3.0039669"
     inkscape:cy="56.91794"
     inkscape:document-units="px"
     inkscape:current-layer="layer1"
     inkscape:document-rotation="0"
     showgrid="true"
     inkscape:window-width="1920"
     inkscape:window-height="1017"
     inkscape:window-x="-8"
     inkscape:window-y="58"
     inkscape:window-maximized="1">
    <inkscape:grid
       type="xygrid"
       id="grid27" />
  </sodipodi:namedview>
  <metadata
     id="metadata21">
    <rdf:RDF>
      <cc:Work
         rdf:about="">
        <dc:format>image/svg+xml</dc:format>
        <dc:type
           rdf:resource="http://purl.org/dc/dcmitype/StillImage" />
        <dc:title />
      </cc:Work>
    </rdf:RDF>
  </metadata>
  <g
     inkscape:label="Layer 1"
     inkscape:groupmode="layer"
     id="layer1">
    <path
       id="path1368"
       style="color:#000000;font-style:normal;font-variant:normal;font-weight:normal;font-stretch:normal;font-size:medium;line-height:normal;font-family:sans-serif;font-variant-ligatures:normal;font-variant-position:normal;font-variant-caps:normal;font-variant-numeric:normal;font-variant-alternates:normal;font-variant-east-asian:normal;font-feature-settings:normal;font-variation-settings:normal;text-indent:0;text-align:start;text-decoration:none;text-decoration-line:none;text-decoration-style:solid;text-decoration-color:#000000;letter-spacing:normal;word-spacing:normal;text-transform:none;writing-mode:lr-tb;direction:ltr;text-orientation:mixed;dominant-baseline:auto;baseline-shift:baseline;text-anchor:start;white-space:normal;shape-padding:0;shape-margin:0;inline-size:0;clip-rule:nonzero;display:inline;overflow:visible;visibility:visible;isolation:auto;mix-blend-mode:normal;color-interpolation:sRGB;color-interpolation-filters:linearRGB;solid-color:#000000;solid-opacity:1;vector-effect:none;fill:#000000;fill-opacity:1;fill-rule:nonzero;stroke:none;stroke-linecap:round;stroke-linejoin:miter;stroke-miterlimit:4;stroke-dasharray:none;stroke-dashoffset:0;stroke-opacity:1;color-rendering:auto;image-rendering:auto;shape-rendering:auto;text-rendering:auto;enable-background:accumulate;stop-color:#000000;stop-opacity:1;opacity:1"
       d="M 104.49219,22.433594 90.402344,22.5 A 2.5,2.5 0 0 0 87.914062,25.011719 2.5,2.5 0 0 0 90.425781,27.5 l 14.072269,-0.06641 c 0.94444,0 1.4875,0.272654 1.85742,0.642578 0.36992,0.369924 0.64258,0.912977 0.64258,1.857422 v 40 c 0,2.055555 0.72734,4.012502 2.10742,5.392578 1.38008,1.380076 3.33702,2.107422 5.39258,2.107422 L 126.39844,77.5 A 2.5,2.5 0 0 0 128.91406,75.013672 2.5,2.5 0 0 0 126.42773,72.5 l -11.92187,-0.06641 h -0.008 c -0.94445,0 -1.4875,-0.272655 -1.85743,-0.642578 -0.36992,-0.369924 -0.64257,-0.912978 -0.64257,-1.857422 v -40 c 0,-2.055556 -0.72735,-4.012502 -2.10743,-5.392578 -1.38007,-1.380077 -3.33702,-2.107422 -5.39257,-2.107422 z M 55.414062,52.5 c -6.873947,0 -12.499999,5.626052 -12.5,12.5 0,6.873948 5.626053,12.5 12.5,12.5 6.873948,0 12.5,-5.626052 12.5,-12.5 0,-6.873948 -5.626052,-12.5 -12.5,-12.5 z m 0,5 c 4.171748,0 7.500001,3.328253 7.5,7.5 0,4.171747 -3.328252,7.5 -7.5,7.5 -4.171747,0 -7.5,-3.328253 -7.5,-7.5 0,-4.171747 3.328253,-7.5 7.5,-7.5 z m 0,31.238281 C 42.333007,88.738281 31.673828,78.081056 31.673828,65 c 0,-13.081056 10.659179,-23.738281 23.740234,-23.738281 13.081056,0 23.738282,10.657225 23.738282,23.738281 0,13.081056 -10.657226,23.738281 -23.738282,23.738281 z m 0,-5 c 10.378855,0 18.738282,-8.359425 18.738282,-18.738281 0,-10.378856 -8.359427,-18.738281 -18.738282,-18.738281 -10.378854,0 -18.740234,8.359425 -18.740234,18.738281 0,10.378856 8.36138,18.738281 18.740234,18.738281 z M 55,114 C 27.985426,114 6,92.014574 6,65 6,37.985426 27.985426,16 55,16 c 27.014574,0 49,21.985426 49,49 0,27.014574 -21.985426,49 -49,49 z m 0,-8 C 77.691053,106 96,87.691053 96,65 96,42.308947 77.691053,24 55,24 32.308947,24 14,42.308947 14,65 c 0,22.691053 18.308947,41 41,41 z" />
  </g>
</svg>
